<svg height="512" viewBox="0 0 64 64" width="512" xmlns="http://www.w3.org/2000/svg"><g id="Fill_Outline" data-name="Fill Outline"><g id="Color"><path d="m5.772 24.355a4.881 4.881 0 0 0 1.835-1.7 4.87 4.87 0 0 0 .707-2.425 12.882 12.882 0 0 1 3.68-9.224 29.008 29.008 0 0 1 48.206 27.784 5.785 5.785 0 0 1 -2.71 3.73 4.461 4.461 0 0 0 -.81.58l-1.12 1a4.882 4.882 0 0 0 -1.34 2.03l-.166.5a11.153 11.153 0 0 0 -.481 2.736 5.655 5.655 0 0 1 -1.693 3.744 29.04 29.04 0 0 1 -32.55 4.99 5.692 5.692 0 0 1 -3.11-3.91 4.721 4.721 0 0 0 -1.11-2.22l-.412-.459a8.832 8.832 0 0 0 -3.777-2.477l-.761-.254c-.01 0-.01 0-.02-.01a6.2 6.2 0 0 1 -3.57-2.83 29.024 29.024 0 0 1 -3.213-18.484 4.1 4.1 0 0 1 2.275-3.033z" fill="#f9dbaf"/><path d="m54.32 45.89a2.443 2.443 0 0 0 -.1.24l-.17.5a11.408 11.408 0 0 0 -.48 2.73 5.65 5.65 0 0 1 -1.69 3.75 29.04 29.04 0 0 1 -32.55 4.99 5.692 5.692 0 0 1 -3.11-3.91 4.721 4.721 0 0 0 -1.11-2.22l-.41-.46a8.888 8.888 0 0 0 -3.78-2.48l-.76-.25c-.01 0-.01 0-.02-.01a6.2 6.2 0 0 1 -3.57-2.83 28.772 28.772 0 0 1 -3.57-13.94 28.288 28.288 0 0 1 .36-4.54 4.114 4.114 0 0 1 2.27-3.04l.14-.06a4.957 4.957 0 0 0 1.84-1.71 4.766 4.766 0 0 0 .7-2.42 12.877 12.877 0 0 1 3.68-9.22 28.811 28.811 0 0 1 7.95-5.38 28.6 28.6 0 0 0 -3.55 12.31 6.193 6.193 0 0 0 1.53 4.29c0 .01 0 .01.01.02l.51.62a8.727 8.727 0 0 1 1.89 4.1l.11.61a4.7 4.7 0 0 1 -.24 2.47 5.661 5.661 0 0 0 .57 4.96 28.994 28.994 0 0 0 30.24 13.02 5.531 5.531 0 0 0 3.31-2.14z" fill="#edb88e"/><path d="m16.842 8.019-2.55-1.319a2.526 2.526 0 0 0 -3.62 1.659 2.52 2.52 0 0 1 -.736 1.265l-.385.358a2.528 2.528 0 0 0 -.269 3.4l1.337 1.718z" fill="#f9dbaf"/><g fill="#edb88e"><path d="m9.787 9.9a31.466 31.466 0 0 1 4.4-1.045 4.858 4.858 0 0 0 2.363-.985l.29.15-6.22 7.08-1.34-1.72a2.527 2.527 0 0 1 .27-3.4z"/><path d="m47.444 54.424.658 1.353a1.884 1.884 0 0 1 -1.18 2.637l-.025.007a1.881 1.881 0 0 0 -1.108.853 1.883 1.883 0 0 1 -2.843.476l-2.279-1.943z"/><path d="m24.993 18.721 1.119 1.253a4.753 4.753 0 0 1 .962 4.673 4.753 4.753 0 0 1 -2.186 2.639l-1.148.642a4.75 4.75 0 0 1 -3.828.36l-1.167-.39a4.748 4.748 0 0 1 -2.037-1.342l-1-1.119a4.751 4.751 0 0 1 -.871-4.92l.391-.984a4.751 4.751 0 0 1 3.172-2.833h.009a4.744 4.744 0 0 1 2.752.079l1.8.6a4.758 4.758 0 0 1 2.032 1.342z"/><path d="m34.618 45.1.967-.645a4.608 4.608 0 0 1 5.11 0l.231.154a4.608 4.608 0 0 1 2.051 3.833v.388a4.606 4.606 0 0 1 -3.489 4.468l-.984.246a4.6 4.6 0 0 1 -3.672-.636l-.214-.143a4.6 4.6 0 0 1 -1.818-5.293 4.607 4.607 0 0 1 1.818-2.372z"/><path d="m41.816 23.456.6-.4a2.857 2.857 0 0 1 3.17 0l.143.1a2.857 2.857 0 0 1 1.271 2.373v.24a2.857 2.857 0 0 1 -2.164 2.772l-.61.152a2.85 2.85 0 0 1 -2.277-.394l-.133-.089a2.857 2.857 0 0 1 -1.126-3.28 2.858 2.858 0 0 1 1.126-1.474z"/><path d="m54.816 35.456.6-.4a2.857 2.857 0 0 1 3.17 0l.143.095a2.857 2.857 0 0 1 1.271 2.378v.24a2.857 2.857 0 0 1 -2.164 2.772l-.61.152a2.85 2.85 0 0 1 -2.277-.394l-.133-.089a2.857 2.857 0 0 1 -1.126-3.28 2.858 2.858 0 0 1 1.126-1.474z"/><path d="m26.816 32.456.6-.4a2.857 2.857 0 0 1 3.17 0l.143.095a2.857 2.857 0 0 1 1.271 2.378v.24a2.857 2.857 0 0 1 -2.164 2.772l-.61.152a2.85 2.85 0 0 1 -2.277-.394l-.133-.089a2.857 2.857 0 0 1 -1.126-3.28 2.858 2.858 0 0 1 1.126-1.474z"/><path d="m32.816 10.456.6-.4a2.857 2.857 0 0 1 3.17 0l.143.095a2.857 2.857 0 0 1 1.271 2.378v.24a2.857 2.857 0 0 1 -2.164 2.772l-.61.152a2.85 2.85 0 0 1 -2.277-.394l-.133-.089a2.857 2.857 0 0 1 -1.126-3.28 2.858 2.858 0 0 1 1.126-1.474z"/><circle cx="45" cy="35" r="2"/><circle cx="23" cy="51" r="2"/><circle cx="18" cy="40" r="2"/><path d="m10.77 38.13v.39a4.61 4.61 0 0 1 -3.49 4.47l-.99.24a4.122 4.122 0 0 1 -.98.13 28.845 28.845 0 0 1 -2.22-9.02l.29-.19a4.575 4.575 0 0 1 5.11 0l.23.15a4.6 4.6 0 0 1 2.05 3.83z"/><path d="m60.96 30.49a4.627 4.627 0 0 1 -2.05-.2l-1.17-.39a4.788 4.788 0 0 1 -2.03-1.34l-1-1.12a4.742 4.742 0 0 1 -.87-4.92l.39-.99a4.747 4.747 0 0 1 3.17-2.83h.01c.1-.03.19-.05.29-.07a28.663 28.663 0 0 1 3.26 11.86z"/></g><path d="m20.44 27.58-.11-.61a8.727 8.727 0 0 0 -1.89-4.1l-.51-.62c-.01-.01-.01-.01-.01-.02a6.193 6.193 0 0 1 -1.53-4.29c0-.039.006-.078.01-.117a4.74 4.74 0 0 0 -1.172 1.71l-.391.984a4.751 4.751 0 0 0 .871 4.92l1 1.119a4.748 4.748 0 0 0 2.037 1.344l1.167.39a4.532 4.532 0 0 0 .583.129 4.716 4.716 0 0 0 -.055-.839z" fill="#da9367"/><path d="m26.112 19.974-1.119-1.253a4.758 4.758 0 0 0 -2.037-1.341l-1.8-.6a4.744 4.744 0 0 0 -2.752-.079h-.009a4.744 4.744 0 0 0 -1.691.86 4.623 4.623 0 0 1 1.452.217l1.8.6a4.758 4.758 0 0 1 2.037 1.341l1.119 1.253a4.752 4.752 0 0 1 -1.224 7.312l-.4.223a4.725 4.725 0 0 0 2.251-.581l1.148-.642a4.752 4.752 0 0 0 1.224-7.312z" fill="#da9367"/><path d="m40.926 44.605-.231-.154a4.608 4.608 0 0 0 -5.11 0l-.967.645a4.606 4.606 0 0 0 0 7.665l.214.143a4.6 4.6 0 0 0 3.672.636l.984-.246a4.606 4.606 0 0 0 3.489-4.468v-.388a4.608 4.608 0 0 0 -2.051-3.833zm-7.315 1.515c.01-.007.019-.017.03-.024l.967-.645a4.608 4.608 0 0 1 5.11 0l.231.154a4.6 4.6 0 0 1 1.926 2.785 28.776 28.776 0 0 1 -8.264-2.27z" fill="#da9367"/><path d="m47 25.53v.24a2.856 2.856 0 0 1 -2.16 2.77l-.58.14a2.816 2.816 0 0 0 .74-1.91v-.24a2.866 2.866 0 0 0 -1.27-2.38l-.15-.09a2.827 2.827 0 0 0 -1.95-.45.9.9 0 0 1 .19-.15l.6-.4a2.84 2.84 0 0 1 3.16 0l.15.09a2.866 2.866 0 0 1 1.27 2.38z" fill="#da9367"/><path d="m38 12.53v.24a2.856 2.856 0 0 1 -2.16 2.77l-.58.14a2.816 2.816 0 0 0 .74-1.91v-.24a2.866 2.866 0 0 0 -1.27-2.38l-.15-.09a2.827 2.827 0 0 0 -1.95-.45.9.9 0 0 1 .19-.15l.6-.4a2.84 2.84 0 0 1 3.16 0l.15.09a2.866 2.866 0 0 1 1.27 2.38z" fill="#da9367"/><path d="m53.922 24.256a4.78 4.78 0 0 1 1.737-1.7l1.306-.742a4.768 4.768 0 0 1 1.929-.6q-.537-1.323-1.194-2.584c-.1.02-.19.04-.29.07h-.01a4.747 4.747 0 0 0 -3.17 2.83l-.39.99a4.692 4.692 0 0 0 -.289 2.364z" fill="#da9367"/><path d="m60 37.53v.24a2.875 2.875 0 0 1 -1.01 2.18 1.087 1.087 0 0 0 .01-.18v-.24a2.866 2.866 0 0 0 -1.27-2.38l-.15-.09a2.84 2.84 0 0 0 -3.16 0l-.6.4a2.472 2.472 0 0 0 -.27.21 2.69 2.69 0 0 1 .14-.74 2.846 2.846 0 0 1 1.13-1.47l.6-.4a2.84 2.84 0 0 1 3.16 0l.15.09a2.866 2.866 0 0 1 1.27 2.38z" fill="#da9367"/><path d="m32 34.53v.24a2.875 2.875 0 0 1 -1.01 2.18 1.087 1.087 0 0 0 .01-.18v-.24a2.866 2.866 0 0 0 -1.27-2.38l-.15-.09a2.84 2.84 0 0 0 -3.16 0l-.6.4a2.472 2.472 0 0 0 -.27.21 2.69 2.69 0 0 1 .14-.74 2.846 2.846 0 0 1 1.13-1.47l.6-.4a2.84 2.84 0 0 1 3.16 0l.15.09a2.866 2.866 0 0 1 1.27 2.38z" fill="#da9367"/><path d="m45 33a2 2 0 0 0 -1.82 1.18 1.992 1.992 0 0 1 2.64 2.64 2 2 0 0 0 -.82-3.82z" fill="#da9367"/><path d="m18 38a2 2 0 0 0 -1.82 1.18 1.992 1.992 0 0 1 2.64 2.64 2 2 0 0 0 -.82-3.82z" fill="#da9367"/><path d="m23 49a2 2 0 0 0 -1.82 1.18 1.992 1.992 0 0 1 2.64 2.64 2 2 0 0 0 -.82-3.82z" fill="#da9367"/><path d="m10.77 38.13v.39a4.61 4.61 0 0 1 -3.49 4.47l-.99.24a.926.926 0 0 1 -.23.04 4.6 4.6 0 0 0 1.94-3.75v-.39a4.6 4.6 0 0 0 -2.05-3.83l-.23-.15a4.649 4.649 0 0 0 -2.63-.78v-.03l.29-.19a4.575 4.575 0 0 1 5.11 0l.23.15a4.6 4.6 0 0 1 2.05 3.83z" fill="#da9367"/><path d="m46.45 8.57 1.99 3.46a3.343 3.343 0 0 0 1.56 1.398l.647.282a3.345 3.345 0 0 0 3.41-.47c.21.24.41.48.6.73l-.534 1.63a4.357 4.357 0 0 1 -4.677 2.957 4.356 4.356 0 0 1 -3.765-4.984z" fill="#edb88e"/><path d="m50.8 14.37a3.668 3.668 0 0 0 3.995-1.906l.156-.3a2.527 2.527 0 0 0 -1.661-3.62 2.525 2.525 0 0 1 -1.265-.736l-.358-.384a2.527 2.527 0 0 0 -3.4-.268l-1.821 1.417 1.772 3.766a3.667 3.667 0 0 0 2.582 2.031z" fill="#f9dbaf"/><path d="m54.5 11c-3.038 0-5.5-1.791-5.5-4 0-.082.01-.163.017-.244a2.512 2.512 0 0 0 -.756.4l-1.815 1.417 1.772 3.766a3.667 3.667 0 0 0 6.575.125l.156-.3a2.492 2.492 0 0 0 .276-1.2c-.237.02-.478.036-.725.036z" fill="#edb88e"/></g><g id="Outline_copy" fill="#323232" data-name="Outline copy"><path d="m55.442 13.386.4-.763a3.529 3.529 0 0 0 -2.319-5.054 1.509 1.509 0 0 1 -.763-.442l-.36-.386a3.507 3.507 0 0 0 -4.75-.375l-1.82 1.419a1 1 0 0 0 1.231 1.576l1.816-1.419a1.518 1.518 0 0 1 2.056.161l.359.387a3.512 3.512 0 0 0 1.765 1.026 1.526 1.526 0 0 1 1 2.187l-1.432 2.766a1 1 0 0 0 .429 1.347.985.985 0 0 0 .459.113 1 1 0 0 0 .889-.54l.021-.041a28.309 28.309 0 0 1 1.812 2.725 5.755 5.755 0 0 0 -2.938 3.09l-.388.984a5.719 5.719 0 0 0 1.052 5.959l1 1.122a5.792 5.792 0 0 0 2.457 1.622l1.175.39a5.723 5.723 0 0 0 1.39.256 28.973 28.973 0 0 1 -.13 3.3 3.871 3.871 0 0 0 -.576-.48l-.144-.095a3.84 3.84 0 0 0 -4.278 0l-.6.4a3.857 3.857 0 0 0 0 6.418l.133.089a3.862 3.862 0 0 0 2.142.647c.095 0 .191-.01.287-.017a5.237 5.237 0 0 0 -.809.592l-1.124 1a5.92 5.92 0 0 0 -1.619 2.457l-.166.5a12.27 12.27 0 0 0 -.53 2.98 4.661 4.661 0 0 1 -1.381 3.093 27.923 27.923 0 0 1 -2.6 2.13l-.256-.527a1 1 0 1 0 -1.8.875l.659 1.354a.871.871 0 0 1 .012.747.891.891 0 0 1 -.59.5 2.867 2.867 0 0 0 -1.7 1.307.883.883 0 0 1 -1.334.223l-2.279-1.942a1 1 0 1 0 -1.3 1.521l.2.173a27.859 27.859 0 0 1 -20.43-1.541 4.694 4.694 0 0 1 -2.57-3.21 1 1 0 0 0 -1.959.4 6.711 6.711 0 0 0 3.652 4.61 30.014 30.014 0 0 0 23.122 1.272l.282.241a2.88 2.88 0 0 0 1.868.688 2.987 2.987 0 0 0 .479-.04 2.873 2.873 0 0 0 2.006-1.377.9.9 0 0 1 .544-.407 2.865 2.865 0 0 0 2.09-2.887 30.1 30.1 0 0 0 3.284-2.653 6.685 6.685 0 0 0 2-4.4 10.317 10.317 0 0 1 .432-2.494l.162-.486a3.874 3.874 0 0 1 1.061-1.611l1.13-1.01a3.52 3.52 0 0 1 .628-.447 6.8 6.8 0 0 0 3.188-4.363 29.789 29.789 0 0 0 -5.73-25.64zm2.615 15.566a3.789 3.789 0 0 1 -1.6-1.058l-1-1.118a3.728 3.728 0 0 1 -.688-3.889l.39-.99a3.74 3.74 0 0 1 2.023-2.04 27.882 27.882 0 0 1 2.685 9.62 3.744 3.744 0 0 1 -.642-.136zm-2.557 10.515-.133-.089a1.858 1.858 0 0 1 0-3.09l.6-.4a1.849 1.849 0 0 1 2.06 0l.143.095a1.853 1.853 0 0 1 .83 1.546v.241a1.856 1.856 0 0 1 -1.406 1.8l-.611.153a1.855 1.855 0 0 1 -1.483-.256z"/><path d="m14.982 50.364a9.91 9.91 0 0 0 -3.746-2.28l-.7-.232c-.027-.011-.054-.022-.081-.031a5.242 5.242 0 0 1 -3.012-2.364c-.238-.431-.457-.872-.671-1.315l.747-.181a5.594 5.594 0 0 0 4.251-5.441v-.39a5.592 5.592 0 0 0 -2.5-4.669l-.218-.141a5.547 5.547 0 0 0 -5.024-.6c-.012-.241-.028-.48-.028-.72a28.042 28.042 0 0 1 .345-4.388 3.1 3.1 0 0 1 1.72-2.288l.194-.1a5.88 5.88 0 0 0 2.2-2.059 5.877 5.877 0 0 0 .851-2.922 14.161 14.161 0 0 1 .755-4.346.99.99 0 0 0 .551.194 1 1 0 0 0 .788-1.616l-1.334-1.706a1.519 1.519 0 0 1 .163-2.057l.384-.358a3.515 3.515 0 0 0 1.028-1.766 1.526 1.526 0 0 1 2.187-1l2.55 1.321a1 1 0 0 0 1.348-.428.973.973 0 0 0 .085-.588 27.812 27.812 0 0 1 16.543-3.793 27.3 27.3 0 0 1 8.95 2.3 1 1 0 0 0 .816-1.827 29.326 29.326 0 0 0 -9.6-2.464 29.871 29.871 0 0 0 -18.361 4.432l-1.411-.731a3.525 3.525 0 0 0 -5.052 2.316 1.514 1.514 0 0 1 -.446.765l-.383.358a3.505 3.505 0 0 0 -.377 4.751l.13.166a15.686 15.686 0 0 0 -1.31 6.043 3.889 3.889 0 0 1 -.564 1.93 3.844 3.844 0 0 1 -1.411 1.316l-.142.068a5.1 5.1 0 0 0 -2.828 3.777 30.035 30.035 0 0 0 3.323 19.12 7.118 7.118 0 0 0 4.079 3.28.744.744 0 0 0 .074.028l.759.252a7.886 7.886 0 0 1 2.984 1.82 1 1 0 0 0 1.394-1.434zm-7.037-15.375.222.144a3.59 3.59 0 0 1 1.6 3v.39a3.6 3.6 0 0 1 -2.726 3.5l-.994.241c-.034.008-.066.012-.1.019a28 28 0 0 1 -1.792-7.425 3.557 3.557 0 0 1 3.79.131z"/><path d="m15.961 27.222a5.754 5.754 0 0 0 2.466 1.624l1.168.39a5.769 5.769 0 0 0 4.633-.434l.726-.406a1 1 0 0 0 -.977-1.747l-.725.407a3.766 3.766 0 0 1 -3.022.284l-1.169-.391a3.754 3.754 0 0 1 -1.608-1.059l-1-1.119a3.734 3.734 0 0 1 -.688-3.885l.391-.985a3.759 3.759 0 0 1 4.685-2.173l1.8.6a3.744 3.744 0 0 1 1.609 1.06l1.119 1.253a3.76 3.76 0 0 1 .76 3.688 1 1 0 1 0 1.9.635 5.764 5.764 0 0 0 -1.164-5.655l-1.119-1.253a5.745 5.745 0 0 0 -2.466-1.624l-1.8-.6a5.762 5.762 0 0 0 -7.18 3.331l-.391.984a5.722 5.722 0 0 0 1.053 5.953z"/><path d="m34.064 53.6.213.141a5.613 5.613 0 0 0 4.47.774l.983-.246a5.6 5.6 0 0 0 4.247-5.439 1 1 0 0 0 -2 0 3.6 3.6 0 0 1 -2.732 3.5l-.983.246a3.617 3.617 0 0 1 -2.876-.5l-.214-.141a3.608 3.608 0 0 1 0-6l.968-.645a3.6 3.6 0 0 1 4 0l.233.156a3.574 3.574 0 0 1 .671.58 1 1 0 0 0 1.486-1.34 5.58 5.58 0 0 0 -1.048-.9l-.232-.155a5.588 5.588 0 0 0 -6.219 0l-.967.645a5.608 5.608 0 0 0 0 9.331z"/><path d="m41.861 22.225-.6.4a3.857 3.857 0 0 0 0 6.418l.133.089a3.859 3.859 0 0 0 3.074.532l.611-.152a3.851 3.851 0 0 0 2.921-3.742v-.241a3.849 3.849 0 0 0 -1.717-3.209l-.144-.095a3.84 3.84 0 0 0 -4.278 0zm3.169 1.664.143.1a1.853 1.853 0 0 1 .827 1.54v.241a1.856 1.856 0 0 1 -1.406 1.8l-.611.153a1.854 1.854 0 0 1 -1.48-.257l-.133-.089a1.858 1.858 0 0 1 0-3.09l.6-.4a1.849 1.849 0 0 1 2.06.002z"/><path d="m26.394 38.131a3.859 3.859 0 0 0 3.074.532l.611-.152a3.851 3.851 0 0 0 2.921-3.741v-.241a3.849 3.849 0 0 0 -1.717-3.209l-.144-.095a3.84 3.84 0 0 0 -4.278 0l-.6.4a3.857 3.857 0 0 0 0 6.418zm.245-3.885a1.868 1.868 0 0 1 .731-.958l.6-.4a1.849 1.849 0 0 1 2.06 0l.143.095a1.853 1.853 0 0 1 .827 1.546v.241a1.856 1.856 0 0 1 -1.406 1.8l-.611.153a1.854 1.854 0 0 1 -1.48-.257l-.133-.089a1.859 1.859 0 0 1 -.731-2.131z"/><path d="m39 12.529a3.849 3.849 0 0 0 -1.717-3.209l-.144-.1a3.84 3.84 0 0 0 -4.278 0l-.6.4a3.857 3.857 0 0 0 0 6.418l.133.089a3.859 3.859 0 0 0 3.074.532l.611-.152a3.851 3.851 0 0 0 2.921-3.737zm-2 .241a1.856 1.856 0 0 1 -1.406 1.8l-.611.153a1.85 1.85 0 0 1 -1.48-.257l-.133-.089a1.858 1.858 0 0 1 0-3.09l.6-.4a1.849 1.849 0 0 1 2.06 0l.143.1a1.853 1.853 0 0 1 .827 1.542z"/><path d="m48 35a3 3 0 1 0 -3 3 3 3 0 0 0 3-3zm-3 1a1 1 0 1 1 1-1 1 1 0 0 1 -1 1z"/><path d="m23 54a3 3 0 1 0 -3-3 3 3 0 0 0 3 3zm0-4a1 1 0 1 1 -1 1 1 1 0 0 1 1-1z"/><path d="m18 43a3 3 0 1 0 -3-3 3 3 0 0 0 3 3zm0-4a1 1 0 1 1 -1 1 1 1 0 0 1 1-1z"/><circle cx="37" cy="31" r="1"/><circle cx="36" cy="22" r="1"/><circle cx="46.779" cy="14.78" r="1"/><circle cx="45" cy="41" r="1"/><circle cx="23" cy="11" r="1"/><circle cx="13" cy="30" r="1"/></g></g></svg>